<?xml version="1.0" encoding="UTF-8"?>
<svg id="Layer_2" data-name="Layer 2" xmlns="http://www.w3.org/2000/svg" viewBox="0 0 785.41 645.8">
  <defs>
    <style>
      .cls-1 {
        fill: #fff;
      }
    </style>
  </defs>
  <g id="Layer_1-2" data-name="Layer 1">
    <g>
      <path class="cls-1" d="M18,508.7l-5.1,23.1H3.1L.3,474.8H6.3l2.4,50.9,6.8-26.8h5l6.9,26.8,2.5-50.9h5.6l-2.8,57h-10.3l-4.4-23.1Z"/>
      <path class="cls-1" d="M76.1,474.9v5.9h-20.1v18.6h18v5.9h-18v20.5h20.1v5.9h-27.2v-57h27.2v.2Z"/>
      <path class="cls-1" d="M147.6,531.8v-50.8h-12.9v-6.2h33v6.2h-12.9v50.8h-7.2Z"/>
      <path class="cls-1" d="M187.1,505.6v26.2h-7.1v-57h7.1v24.7h16.8v-24.7h7.1v57h-7.1v-26.2h-16.8Z"/>
      <path class="cls-1" d="M253.4,474.9v5.9h-20.1v18.6h18.1v5.9h-18.1v20.5h20.1v5.9h-27.2v-57h27.2v.2Z"/>
      <path class="cls-1" d="M340.3,500.3v5.9h-18.1v25.6h-7.1v-57h27.2v5.9h-20.1v19.4h18.1v.2Z"/>
      <path class="cls-1" d="M384.7,528.4c-2.5,2.3-6.1,3.5-10.9,3.5h-2c-4.7,0-8.3-1.2-10.9-3.5-2.5-2.3-3.8-5.8-3.8-10.4v-43.1h7.1v44.7c0,1.7,.6,3.1,1.9,4.3,1.2,1.2,2.9,1.8,4.9,1.8h3.7c2,0,3.6-.6,4.9-1.8,1.2-1.2,1.9-2.6,1.9-4.3v-44.7h7.1v43.1c-.1,4.6-1.4,8.1-3.9,10.4Z"/>
      <path class="cls-1" d="M413.6,531.8v-50.8h-12.9v-6.2h33v6.2h-12.9v50.8h-7.2Z"/>
      <path class="cls-1" d="M473.4,528.4c-2.5,2.3-6.1,3.5-10.9,3.5h-2c-4.7,0-8.3-1.2-10.9-3.5-2.5-2.3-3.8-5.8-3.8-10.4v-43.1h7.1v44.7c0,1.7,.6,3.1,1.9,4.3,1.2,1.2,2.9,1.8,4.9,1.8h3.7c2,0,3.6-.6,4.9-1.8,1.2-1.2,1.9-2.6,1.9-4.3v-44.7h7.1v43.1c-.1,4.6-1.4,8.1-3.9,10.4Z"/>
      <path class="cls-1" d="M496.7,508.2v23.6h-7.1v-57h15.3c4.6,0,8.1,1,10.5,3.1s3.5,5.2,3.5,9.6v7.8c0,6.1-2.4,10-7.3,11.5l11.3,25h-7.7l-10.5-23.6h-8Zm13.7-25.8c-.9-.9-2.5-1.4-4.5-1.4h-9.2v21.2h9.2c2.1,0,3.6-.5,4.5-1.4s1.4-2.5,1.4-4.5v-9.4c0-2.1-.4-3.6-1.4-4.5Z"/>
      <path class="cls-1" d="M563.8,474.9v5.9h-20.1v18.6h18.1v5.9h-18.1v20.5h20.1v5.9h-27.2v-57h27.2v.2Z"/>
      <path class="cls-1" d="M21.4,605.5h-6.8l-8-32v51.1H.4v-57H11.7l6.5,29.1,6.6-29.1h11v57h-6.3v-51.1l-8.1,32Z"/>
      <path class="cls-1" d="M75,621.2c-2.5,2.3-6.1,3.5-10.9,3.5h-3.3c-4.7,0-8.3-1.2-10.9-3.5-2.5-2.3-3.8-5.8-3.8-10.4v-29.3c0-4.6,1.3-8.1,3.8-10.4s6.1-3.5,10.9-3.5h3.3c4.7,0,8.3,1.2,10.9,3.5,2.5,2.3,3.8,5.8,3.8,10.4v29.3c0,4.6-1.3,8.1-3.8,10.4Zm-5.2-45.5c-1.2-1.2-2.9-1.8-4.9-1.8h-4.9c-2,0-3.6,.6-4.9,1.8-1.2,1.2-1.9,2.6-1.9,4.3v32.4c0,1.7,.6,3.1,1.9,4.3,1.2,1.2,2.9,1.8,4.9,1.8h4.9c2,0,3.6-.6,4.9-1.8,1.2-1.2,1.9-2.6,1.9-4.3v-32.4c0-1.7-.7-3.1-1.9-4.3Z"/>
      <path class="cls-1" d="M89.4,567.7h7.2l9.8,49.8,10.5-49.8h7l-12.8,57h-9.7l-12-57Z"/>
      <path class="cls-1" d="M164.8,567.7v5.9h-20.1v18.6h18.1v5.9h-18.1v20.5h20.1v5.9h-27.2v-57h27.2v.2Z"/>
      <path class="cls-1" d="M198.8,605.5h-6.8l-8-32v51.1h-6.2v-57h11.3l6.5,29.1,6.6-29.1h11v57h-6.3v-51.1l-8.1,32Z"/>
      <path class="cls-1" d="M253.4,567.7v5.9h-20.1v18.6h18.1v5.9h-18.1v20.5h20.1v5.9h-27.2v-57h27.2v.2Z"/>
      <path class="cls-1" d="M275.2,624.6h-6.6v-57h11.6l12.9,50.9v-50.9h6.6v57h-11.7l-12.8-50.9v50.9Z"/>
      <path class="cls-1" d="M324.9,624.6v-50.8h-12.9v-6.2h33v6.2h-13v50.8h-7.1Z"/>
    </g>
    <path class="cls-1" d="M629.1,409.5v11.8c0,8-6.5,14.5-14.5,14.5H355.2c-8,0-14.5-6.5-14.5-14.5V183.5H181.2c-8,0-14.5-6.5-14.5-14.5v-11.8c0-8,6.5-14.5,14.5-14.5h159.4V18.3c0-10.1,8.2-18.3,18.3-18.3h50.9c10.1,0,18.3,8.2,18.3,18.3v124.5h85.9c8,0,14.5,6.5,14.5,14.5v11.8c0,8-6.5,14.5-14.5,14.5h-85.9v211.4h186.4c8,0,14.5,6.5,14.6,14.5Z"/>
    <g>
      <path class="cls-1" d="M306.9,202.9H167.9c-4.7,0-9.4,2.2-12.9,6.7l-67.5,84.3V119.5c0-11.6-8.2-21-18.3-21H18.3c-10.1,0-18.3,9.4-18.3,21V414.9c0,11.6,8.2,21,18.3,21H90.3c4.6,0,9.3-2.3,12.8-6.7l64.7-80.9,64.7,80.9c3.6,4.5,8.2,6.7,12.9,6.7h63.1c8.2-1,14.7-8.7,14.7-17.9V220.8c.1-9.9-7.2-17.9-16.3-17.9Zm-22.9,135.8l-67.2-84.1-36-45c-.6-.7-1.2-1.4-1.8-2h105v131.1Z"/>
      <path class="cls-1" d="M46.7,118.2h4.2c12.2,0,22,9.9,22,22v248.8c0,12.2-9.9,22-22,22h-4.2c-12.2,0-22-9.9-22-22V140.2c0-12.1,9.8-22,22-22Z"/>
    </g>
    <path class="cls-1" d="M446.4,540v87.5c0,10.1,8.2,18.3,18.3,18.3h50.9c10.1,0,18.3-8.2,18.3-18.3v-87.5h-87.5ZM775.6,223.7l-73.1-73.1c-6.3-6.3-14.4-9.3-22.8-8.4-7,.7-13.4,4.1-18.1,9.4-4.5,5.2-7,11.9-7,18.9l.1,29.9h-190c-10.1,0-18.3,8.2-18.3,18.3v217.1h87.5v-143.9h121.1l.1,30c0,8.5,3.8,16.4,10.2,21.8,5.1,4.3,11.5,6.6,18,6.6,1.7,0,3.3-.2,5-.4,6.6-1.2,12.7-4.3,17.4-9.1l70.1-70.1c12.9-13,12.8-34-.2-47Zm-18.1,28.6l-70.1,70.1c-1.3,1.3-2.7,1.8-3.7,1.9-.7,.1-1.3,0-1.8-.5-.3-.3-.9-.9-.9-2l-.3-151.4c0-1.2,.8-2.3,1.9-2.4,.3,0,.7-.1,1.7,1l73.1,73.1c2.8,2.8,2.8,7.4,.1,10.2Z"/>
    <rect class="cls-1" x="446.4" y="435.8" width="87.5" height="29.8"/>
    <rect class="cls-1" x="446.4" y="563.6" width="87.5" height="38.8"/>
    <path class="cls-1" d="M654.2,244.4v3.6c0,10.3-8.3,18.7-18.7,18.7h-157c-10.3,0-18.7-8.3-18.7-18.7v-3.6c0-10.3,8.3-18.7,18.7-18.7h157c10.4,0,18.7,8.4,18.7,18.7Z"/>
  </g>
</svg>