<?xml version="1.0" encoding="UTF-8"?>
<svg id="Layer_2" data-name="Layer 2" xmlns="http://www.w3.org/2000/svg" viewBox="0 0 789.2 645.8">
  <g id="Layer_1-2" data-name="Layer 1">
    <g>
      <path d="M21.8,508.76l-5.13,23.11H6.92l-2.77-56.95h6.02l2.44,50.85,6.75-26.85h5.04l6.92,26.85,2.52-50.85h5.61l-2.77,56.95h-10.25l-4.64-23.11Z"/>
      <path d="M79.9,474.91v5.94h-20.1v18.63h18.06v5.94h-18.06v20.5h20.1v5.94h-27.17v-56.95h27.17Z"/>
      <path d="M151.41,531.86v-50.77h-12.94v-6.18h32.95v6.18h-12.94v50.77h-7.08Z"/>
      <path d="M190.95,505.66v26.2h-7.08v-56.95h7.08v24.73h16.76v-24.73h7.08v56.95h-7.08v-26.2h-16.76Z"/>
      <path d="M257.26,474.91v5.94h-20.1v18.63h18.06v5.94h-18.06v20.5h20.1v5.94h-27.17v-56.95h27.17Z"/>
      <path d="M344.16,500.29v5.94h-18.06v25.63h-7.08v-56.95h27.17v5.94h-20.1v19.45h18.06Z"/>
      <path d="M388.54,528.4c-2.52,2.31-6.14,3.46-10.86,3.46h-2.03c-4.72,0-8.34-1.15-10.86-3.46-2.52-2.3-3.78-5.76-3.78-10.37v-43.12h7.08v44.67c0,1.68,.62,3.12,1.87,4.31,1.25,1.19,2.87,1.79,4.88,1.79h3.66c2.01,0,3.63-.6,4.88-1.79,1.25-1.19,1.87-2.63,1.87-4.31v-44.67h7.08v43.12c0,4.61-1.26,8.07-3.78,10.37Z"/>
      <path d="M417.46,531.86v-50.77h-12.94v-6.18h32.95v6.18h-12.94v50.77h-7.08Z"/>
      <path d="M477.22,528.4c-2.52,2.31-6.14,3.46-10.86,3.46h-2.03c-4.72,0-8.34-1.15-10.86-3.46-2.52-2.3-3.78-5.76-3.78-10.37v-43.12h7.08v44.67c0,1.68,.62,3.12,1.87,4.31,1.25,1.19,2.87,1.79,4.88,1.79h3.66c2.01,0,3.63-.6,4.88-1.79,1.25-1.19,1.87-2.63,1.87-4.31v-44.67h7.08v43.12c0,4.61-1.26,8.07-3.78,10.37Z"/>
      <path d="M500.53,508.27v23.59h-7.08v-56.95h15.3c4.61,0,8.1,1.02,10.46,3.05s3.54,5.25,3.54,9.64v7.81c0,6.13-2.44,9.95-7.32,11.47l11.31,24.98h-7.73l-10.5-23.59h-7.97Zm13.71-25.87c-.95-.92-2.46-1.38-4.52-1.38h-9.19v21.15h9.19c2.06,0,3.57-.47,4.52-1.42,.95-.95,1.42-2.45,1.42-4.52v-9.36c0-2.06-.48-3.55-1.42-4.47Z"/>
      <path d="M567.65,474.91v5.94h-20.1v18.63h18.06v5.94h-18.06v20.5h20.1v5.94h-27.17v-56.95h27.17Z"/>
      <path d="M25.22,605.56h-6.75l-7.97-31.97v51.09H4.31v-56.95H15.62l6.51,29.13,6.59-29.13h10.98v56.95h-6.35v-51.09l-8.14,31.97Z"/>
      <path d="M78.8,621.22c-2.52,2.31-6.14,3.46-10.86,3.46h-3.25c-4.72,0-8.34-1.15-10.86-3.46-2.52-2.3-3.78-5.76-3.78-10.37v-29.29c0-4.61,1.26-8.07,3.78-10.37,2.52-2.3,6.14-3.46,10.86-3.46h3.25c4.72,0,8.34,1.15,10.86,3.46,2.52,2.31,3.78,5.76,3.78,10.37v29.29c0,4.61-1.26,8.07-3.78,10.37Zm-5.17-45.52c-1.25-1.19-2.88-1.79-4.88-1.79h-4.88c-2.01,0-3.63,.6-4.88,1.79-1.25,1.19-1.87,2.63-1.87,4.31v32.38c0,1.68,.62,3.12,1.87,4.31,1.25,1.19,2.87,1.79,4.88,1.79h4.88c2.01,0,3.63-.6,4.88-1.79,1.25-1.19,1.87-2.63,1.87-4.31v-32.38c0-1.68-.62-3.12-1.87-4.31Z"/>
      <path d="M93.24,567.73h7.16l9.76,49.79,10.5-49.79h7l-12.77,56.95h-9.68l-11.96-56.95Z"/>
      <path d="M168.58,567.73v5.94h-20.1v18.63h18.06v5.94h-18.06v20.5h20.1v5.94h-27.17v-56.95h27.17Z"/>
      <path d="M202.59,605.56h-6.75l-7.97-31.97v51.09h-6.18v-56.95h11.31l6.51,29.13,6.59-29.13h10.98v56.95h-6.35v-51.09l-8.14,31.97Z"/>
      <path d="M257.26,567.73v5.94h-20.1v18.63h18.06v5.94h-18.06v20.5h20.1v5.94h-27.17v-56.95h27.17Z"/>
      <path d="M279.07,624.68h-6.59v-56.95h11.55l12.85,50.93v-50.93h6.59v56.95h-11.63l-12.77-50.93v50.93Z"/>
      <path d="M328.78,624.68v-50.77h-12.94v-6.18h32.95v6.18h-12.94v50.77h-7.08Z"/>
    </g>
    <path d="M632.89,409.5v11.8c0,8-6.5,14.5-14.5,14.5H358.99c-8,0-14.5-6.5-14.5-14.5V183.5H184.99c-8,0-14.5-6.5-14.5-14.5v-11.8c0-8,6.5-14.5,14.5-14.5h159.4V18.3c0-10.1,8.2-18.3,18.3-18.3h50.9c10.1,0,18.3,8.2,18.3,18.3v124.5h85.9c8,0,14.5,6.5,14.5,14.5v11.8c0,8-6.5,14.5-14.5,14.5h-85.9v211.4h186.4c8,0,14.5,6.5,14.6,14.5Z"/>
    <g>
      <path d="M310.69,202.9H171.69c-4.7,0-9.4,2.2-12.9,6.7l-67.5,84.3V119.5c0-11.6-8.2-21-18.3-21H22.09c-10.1,0-18.3,9.4-18.3,21V414.9c0,11.6,8.2,21,18.3,21H94.09c4.6,0,9.3-2.3,12.8-6.7l64.7-80.9,64.7,80.9c3.6,4.5,8.2,6.7,12.9,6.7h63.1c8.2-1,14.7-8.7,14.7-17.9V220.8c.1-9.9-7.2-17.9-16.3-17.9Zm-22.9,135.8l-67.2-84.1-36-45c-.6-.7-1.2-1.4-1.8-2h105v131.1Z"/>
      <path d="M50.49,118.2h4.2c12.2,0,22,9.9,22,22v248.8c0,12.2-9.9,22-22,22h-4.2c-12.2,0-22-9.9-22-22V140.2c0-12.1,9.8-22,22-22Z"/>
    </g>
    <path d="M450.19,540.02v87.48c0,10.1,8.2,18.3,18.3,18.3h50.9c10.1,0,18.3-8.2,18.3-18.3v-87.48h-87.5ZM779.39,223.7l-73.1-73.1c-6.3-6.3-14.4-9.3-22.8-8.4-7,.7-13.4,4.1-18.1,9.4-4.5,5.2-7,11.9-7,18.9l.1,29.9h-190c-10.1,0-18.3,8.2-18.3,18.3v217.1h87.5v-143.9h121.1l.1,30c0,8.5,3.8,16.4,10.2,21.8,5.1,4.3,11.5,6.6,18,6.6,1.7,0,3.3-.2,5-.4,6.6-1.2,12.7-4.3,17.4-9.1l70.1-70.1c12.9-13,12.8-34-.2-47Zm-18.1,28.6l-70.1,70.1c-1.3,1.3-2.7,1.8-3.7,1.9-.7,.1-1.3,0-1.8-.5-.3-.3-.9-.9-.9-2l-.3-151.4c0-1.2,.8-2.3,1.9-2.4,.3,0,.7-.1,1.7,1l73.1,73.1c2.8,2.8,2.8,7.4,.1,10.2Z"/>
    <rect x="450.19" y="435.8" width="87.5" height="29.83"/>
    <rect x="450.19" y="563.62" width="87.5" height="38.77"/>
    <path d="M657.99,244.4v3.6c0,10.3-8.3,18.7-18.7,18.7h-157c-10.3,0-18.7-8.3-18.7-18.7v-3.6c0-10.3,8.3-18.7,18.7-18.7h157c10.4,0,18.7,8.4,18.7,18.7Z"/>
  </g>
</svg>