<svg xmlns="http://www.w3.org/2000/svg" xmlns:xlink="http://www.w3.org/1999/xlink" width="500" zoomAndPan="magnify" viewBox="0 0 375 374.999991" height="500" preserveAspectRatio="xMidYMid meet" version="1.0"><defs><clipPath id="dd11982c06"><path d="M 78 38.246094 L 296 38.246094 L 296 241 L 78 241 Z M 78 38.246094 " clip-rule="nonzero"/></clipPath><clipPath id="17d587b57d"><path d="M 6.835938 82 L 157 82 L 157 240 L 6.835938 240 Z M 6.835938 82 " clip-rule="nonzero"/></clipPath><clipPath id="e5132a00b5"><path d="M 211 104 L 368.335938 104 L 368.335938 337.496094 L 211 337.496094 Z M 211 104 " clip-rule="nonzero"/></clipPath></defs><g clip-path="url(#dd11982c06)"><path fill="#fff2ff" d="M 289.144531 221.253906 L 202.808594 221.253906 L 202.808594 123.347656 L 242.609375 123.347656 C 246.328125 123.347656 249.34375 120.335938 249.34375 116.617188 L 249.34375 111.167969 C 249.34375 107.449219 246.328125 104.433594 242.609375 104.433594 L 202.808594 104.433594 L 202.808594 46.820312 C 202.808594 42.144531 199.015625 38.347656 194.332031 38.347656 L 170.769531 38.347656 C 166.085938 38.347656 162.289062 42.144531 162.289062 46.820312 L 162.289062 104.433594 L 85.535156 104.433594 C 81.816406 104.433594 78.800781 107.449219 78.800781 111.167969 L 78.800781 116.617188 C 78.800781 120.335938 81.816406 123.347656 85.535156 123.347656 L 162.289062 123.347656 L 162.289062 233.4375 C 162.289062 237.15625 165.304688 240.171875 169.027344 240.171875 L 289.140625 240.171875 C 292.859375 240.171875 295.875 237.15625 295.875 233.4375 L 295.875 227.988281 C 295.875 224.269531 292.859375 221.253906 289.140625 221.253906 Z M 289.144531 221.253906 " fill-opacity="1" fill-rule="nonzero"/></g><g clip-path="url(#17d587b57d)"><path fill="#fff2ff" d="M 148.960938 131.148438 L 84.558594 131.148438 C 82.390625 131.148438 80.21875 132.183594 78.5625 134.253906 L 47.351562 173.292969 L 47.351562 92.519531 C 47.351562 87.152344 43.558594 82.796875 38.875 82.796875 L 15.3125 82.796875 C 10.628906 82.796875 6.835938 87.152344 6.835938 92.519531 L 6.835938 229.285156 C 6.835938 234.65625 10.628906 239.007812 15.3125 239.007812 L 38.875 239.007812 C 40.6875 239.007812 42.363281 238.359375 43.738281 237.25 C 43.773438 237.222656 43.800781 237.195312 43.832031 237.171875 C 45.246094 238.375 46.878906 238.988281 48.519531 239.007812 C 50.714844 239.035156 52.921875 238 54.597656 235.902344 L 84.558594 198.425781 L 114.519531 235.902344 C 116.167969 237.964844 118.324219 239 120.488281 239.007812 L 150.5 239.007812 C 150.269531 239.007812 150.042969 238.984375 149.816406 238.953125 C 153.621094 238.488281 156.582031 234.988281 156.582031 230.730469 L 156.582031 139.417969 C 156.582031 134.847656 153.167969 131.140625 148.957031 131.140625 L 148.960938 131.140625 Z M 107.214844 155.101562 L 90.554688 134.257812 C 90.285156 133.925781 90.007812 133.625 89.714844 133.339844 L 138.359375 133.339844 L 138.359375 194.050781 L 107.210938 155.09375 L 107.214844 155.09375 Z M 107.214844 155.101562 " fill-opacity="1" fill-rule="nonzero"/></g><path fill="#fff2ff" d="M 43.738281 237.476562 C 42.363281 238.445312 40.6875 239.007812 38.875 239.007812 L 48.519531 239.007812 C 46.84375 238.988281 45.171875 238.480469 43.738281 237.476562 Z M 43.738281 237.476562 " fill-opacity="1" fill-rule="nonzero"/><path fill="#fff2ff" d="M 26.117188 93.089844 L 28.066406 93.089844 C 28.738281 93.089844 29.398438 93.152344 30.058594 93.285156 C 30.714844 93.414062 31.351562 93.609375 31.96875 93.863281 C 32.589844 94.121094 33.175781 94.433594 33.734375 94.808594 C 34.292969 95.179688 34.804688 95.601562 35.28125 96.074219 C 35.753906 96.546875 36.175781 97.0625 36.550781 97.621094 C 36.921875 98.175781 37.234375 98.765625 37.492188 99.382812 C 37.746094 100 37.941406 100.640625 38.070312 101.296875 C 38.203125 101.953125 38.269531 102.617188 38.269531 103.285156 L 38.269531 218.492188 C 38.269531 219.160156 38.203125 219.824219 38.070312 220.480469 C 37.941406 221.136719 37.746094 221.773438 37.492188 222.394531 C 37.234375 223.011719 36.921875 223.597656 36.550781 224.15625 C 36.175781 224.710938 35.753906 225.226562 35.28125 225.699219 C 34.804688 226.175781 34.292969 226.597656 33.734375 226.96875 C 33.175781 227.339844 32.589844 227.65625 31.96875 227.910156 C 31.351562 228.167969 30.714844 228.359375 30.058594 228.492188 C 29.398438 228.621094 28.738281 228.6875 28.066406 228.6875 L 26.117188 228.6875 C 25.445312 228.6875 24.785156 228.621094 24.125 228.492188 C 23.46875 228.359375 22.832031 228.167969 22.210938 227.910156 C 21.59375 227.65625 21.007812 227.339844 20.449219 226.96875 C 19.890625 226.597656 19.375 226.175781 18.902344 225.699219 C 18.429688 225.226562 18.007812 224.710938 17.632812 224.15625 C 17.261719 223.597656 16.949219 223.011719 16.691406 222.394531 C 16.433594 221.773438 16.242188 221.136719 16.109375 220.480469 C 15.980469 219.824219 15.914062 219.160156 15.914062 218.492188 L 15.914062 103.285156 C 15.914062 102.617188 15.980469 101.953125 16.109375 101.296875 C 16.242188 100.640625 16.433594 100 16.691406 99.382812 C 16.949219 98.765625 17.261719 98.175781 17.632812 97.621094 C 18.007812 97.0625 18.429688 96.546875 18.902344 96.074219 C 19.375 95.601562 19.890625 95.179688 20.449219 94.808594 C 21.007812 94.433594 21.59375 94.121094 22.210938 93.863281 C 22.832031 93.609375 23.46875 93.414062 24.125 93.285156 C 24.785156 93.152344 25.445312 93.089844 26.117188 93.089844 Z M 26.117188 93.089844 " fill-opacity="1" fill-rule="nonzero"/><g clip-path="url(#e5132a00b5)"><path fill="#fff2ff" d="M 363.808594 141.945312 L 329.949219 108.101562 C 327.03125 105.183594 323.28125 103.800781 319.40625 104.203125 C 316.160156 104.539062 313.183594 106.089844 311.019531 108.574219 C 308.910156 110.992188 307.753906 114.09375 307.761719 117.300781 L 307.792969 131.140625 L 219.769531 131.140625 C 215.085938 131.140625 211.289062 134.933594 211.289062 139.617188 L 211.289062 328.917969 C 211.289062 333.601562 215.085938 337.390625 219.769531 337.390625 L 243.332031 337.390625 C 248.015625 337.390625 251.808594 333.601562 251.808594 328.917969 L 251.808594 173.519531 L 307.890625 173.519531 L 307.925781 187.386719 C 307.933594 191.300781 309.660156 194.980469 312.667969 197.488281 C 315.042969 199.46875 318 200.53125 321.03125 200.53125 C 321.800781 200.53125 322.570312 200.460938 323.335938 200.324219 C 326.414062 199.773438 329.203125 198.316406 331.414062 196.105469 L 363.878906 163.65625 C 369.851562 157.6875 369.816406 147.949219 363.808594 141.945312 Z M 355.382812 155.164062 L 322.914062 187.613281 C 322.328125 188.203125 321.664062 188.425781 321.210938 188.503906 C 320.902344 188.558594 320.617188 188.480469 320.363281 188.269531 C 320.207031 188.132812 319.9375 187.84375 319.9375 187.359375 L 319.773438 117.273438 C 319.773438 116.703125 320.164062 116.199219 320.644531 116.148438 C 320.765625 116.132812 320.96875 116.117188 321.453125 116.59375 L 355.3125 150.4375 C 356.636719 151.761719 356.667969 153.878906 355.382812 155.164062 Z M 355.382812 155.164062 " fill-opacity="1" fill-rule="nonzero"/></g><path fill="#fff2ff" d="M 226.207031 142.875 L 298.929688 142.875 C 299.496094 142.875 300.058594 142.929688 300.613281 143.042969 C 301.167969 143.152344 301.710938 143.316406 302.234375 143.53125 C 302.757812 143.75 303.257812 144.015625 303.726562 144.332031 C 304.199219 144.644531 304.636719 145.003906 305.039062 145.40625 C 305.4375 145.804688 305.796875 146.242188 306.113281 146.714844 C 306.425781 147.183594 306.691406 147.683594 306.910156 148.207031 C 307.128906 148.730469 307.292969 149.269531 307.402344 149.828125 C 307.511719 150.382812 307.566406 150.945312 307.566406 151.511719 L 307.566406 153.160156 C 307.566406 153.726562 307.511719 154.289062 307.402344 154.84375 C 307.292969 155.402344 307.128906 155.941406 306.910156 156.464844 C 306.691406 156.988281 306.425781 157.484375 306.113281 157.957031 C 305.796875 158.429688 305.4375 158.867188 305.039062 159.265625 C 304.636719 159.667969 304.199219 160.023438 303.726562 160.339844 C 303.257812 160.65625 302.757812 160.921875 302.234375 161.136719 C 301.710938 161.355469 301.167969 161.519531 300.613281 161.628906 C 300.058594 161.742188 299.496094 161.796875 298.929688 161.796875 L 226.207031 161.796875 C 225.640625 161.796875 225.078125 161.742188 224.523438 161.628906 C 223.964844 161.519531 223.425781 161.355469 222.902344 161.136719 C 222.378906 160.921875 221.878906 160.65625 221.40625 160.339844 C 220.9375 160.023438 220.5 159.667969 220.097656 159.265625 C 219.699219 158.867188 219.339844 158.429688 219.023438 157.957031 C 218.707031 157.484375 218.441406 156.988281 218.226562 156.464844 C 218.007812 155.941406 217.84375 155.402344 217.734375 154.84375 C 217.625 154.289062 217.566406 153.726562 217.566406 153.160156 L 217.566406 151.511719 C 217.566406 150.945312 217.625 150.382812 217.734375 149.828125 C 217.84375 149.269531 218.007812 148.730469 218.226562 148.207031 C 218.441406 147.683594 218.707031 147.183594 219.023438 146.714844 C 219.339844 146.242188 219.699219 145.804688 220.097656 145.40625 C 220.5 145.003906 220.9375 144.644531 221.40625 144.332031 C 221.878906 144.015625 222.378906 143.75 222.902344 143.53125 C 223.425781 143.316406 223.964844 143.152344 224.523438 143.042969 C 225.078125 142.929688 225.640625 142.875 226.207031 142.875 Z M 226.207031 142.875 " fill-opacity="1" fill-rule="nonzero"/></svg>