<?xml version="1.0" encoding="UTF-8"?>
<svg id="Layer_2" data-name="Layer 2" xmlns="http://www.w3.org/2000/svg" viewBox="0 0 785.41 645.8">
  <defs>
    <style>
      .cls-1 {
        fill: #900ac7;
      }
    </style>
  </defs>
  <g id="Layer_1-2" data-name="Layer 1">
    <g>
      <path class="cls-1" d="M614.5,395h-186.4V183.6h85.9c8,0,14.5-6.5,14.5-14.5v-11.8c0-8-6.5-14.5-14.5-14.5h-85.9V18.3c0-10.1-8.2-18.3-18.3-18.3h-50.9c-10.1,0-18.3,8.2-18.3,18.3v124.4H181.2c-8,0-14.5,6.5-14.5,14.5v11.8c0,8,6.5,14.5,14.5,14.5h159.5v226h0v11.8c0,8,6.5,14.5,14.5,14.5h259.4c8,0,14.5-6.5,14.5-14.5v-11.8c-.1-8-6.6-14.5-14.6-14.5h0Z"/>
      <g>
        <path class="cls-1" d="M284,338.7l-67.2-84.1h0l-36-45c-.6-.7-1.2-1.4-1.8-2h105v131.1Zm22.9-135.8H167.9c-4.7,0-9.4,2.2-12.9,6.7l-67.5,84.3V119.5c0-11.6-8.2-21-18.3-21H18.3c-10.1,0-18.3,9.4-18.3,21V414.9c0,11.6,8.2,21,18.3,21H90.3c4.6,0,9.3-2.3,12.8-6.7l64.7-80.9,64.7,80.9c3.6,4.5,8.2,6.7,12.9,6.7h63.1c8.2-1,14.7-8.7,14.7-17.9V220.8c.1-9.9-7.2-17.9-16.3-17.9Z"/>
        <path class="cls-1" d="M46.7,118.2h4.2c12.2,0,22,9.9,22,22v248.8c0,12.2-9.9,22-22,22h-4.2c-12.2,0-22-9.9-22-22V140.2c0-12.1,9.8-22,22-22Z"/>
      </g>
      <g>
        <path class="cls-1" d="M775.6,223.7l-73.1-73.1c-6.3-6.3-14.4-9.3-22.8-8.4-7,.7-13.4,4.1-18.1,9.4-4.5,5.2-7,11.9-7,18.9l.1,29.9h-190c-10.1,0-18.3,8.2-18.3,18.3v408.8c0,10.1,8.2,18.3,18.3,18.3h50.9c10.1,0,18.3-8.2,18.3-18.3V291.9h121.1l.1,30c0,8.5,3.8,16.4,10.2,21.8,5.1,4.3,11.5,6.6,18,6.6,1.7,0,3.3-.2,5-.4,6.6-1.2,12.7-4.3,17.4-9.1l70.1-70.1c12.9-13,12.8-34-.2-47h0Zm-18.1,28.6l-70.1,70.1c-1.3,1.3-2.7,1.8-3.7,1.9-.7,.1-1.3,0-1.8-.5-.3-.3-.9-.9-.9-2l-.3-151.4c0-1.2,.8-2.3,1.9-2.4,.3,0,.7-.1,1.7,1l73.1,73.1c2.8,2.8,2.8,7.4,.1,10.2h0Z"/>
        <path class="cls-1" d="M654.2,244.4v3.6c0,10.3-8.3,18.7-18.7,18.7h-157c-10.3,0-18.7-8.3-18.7-18.7v-3.6c0-10.3,8.3-18.7,18.7-18.7h157c10.4,0,18.7,8.4,18.7,18.7Z"/>
      </g>
    </g>
  </g>
</svg>